<svg fill="none" xmlns="http://www.w3.org/2000/svg" viewBox="0 0 343 251"><path d="M262.07 234.036c-10.392-8.467 3.688-9.461 12.027-8.9v5.533l19.966 5.051c-6.334 2.967-21.601 6.784-31.993-1.684ZM316.676 228.985c-6.736.769-8.74-2.246-8.901-3.849h14.434c.962.962 1.202 3.079-5.533 3.849Z" fill="currentColor"/><path d="M301.52 205.651c-7.457 0-11.546-.481-17.56-.962M307.294 208.538v23.093M289.974 209.74l-15.877-1.202M297.431 212.146v23.334M297.19 235.961l10.104-4.09M283.719 204.689l-9.622 3.849M273.857 208.778v22.131M273.616 230.668l23.574 5.293M301.521 206.132v-6.736M322.449 224.895v-23.333M333.755 193.864v25.98M322.449 225.376l11.306-5.532M333.755 193.623l-25.499-.962M301.521 199.397l6.735-6.736M322.449 201.321l11.065-7.217M322.449 224.895h-14.193M301.762 199.396l13.711.482" stroke="currentColor" stroke-width="2" stroke-linecap="round"/><path d="M109.542 244.162c.241-6.736 27.183-4.571 28.867-4.33v4.33l8.178 5.773c-12.428.321-37.237-.385-37.045-5.773Z" fill="currentColor"/><path d="M176.417 243.44v-24.536M155.488 249.694v-26.942M138.168 243.44v-26.942M138.168 216.498l19.004-4.811M176.416 218.663l-20.928 3.849M155.488 249.935l20.928-6.254M176.416 218.663l-19.244-6.976M138.168 216.739l17.561 5.773" stroke="currentColor" stroke-width="2" stroke-linecap="round"/><path d="M199.868 242.959c-4.426-7.698 9.703-8.82 17.32-8.419v5.532l24.777 2.887c-12.188 3.207-37.67 7.698-42.097 0Z" fill="currentColor"/><path d="m254.233 232.615-9.381 9.622M242.686 212.89l-24.296-1.684M228.253 204.952l25.98 1.202M217.909 211.206l-1.203 27.904M254.233 206.635v25.499M244.852 221.79v20.447M217.909 211.206l10.343-6.254M244.851 242.237l-28.385-2.886M194.852 62.6709c1.043-.3209 3.801-.6255 6.495.7216" stroke="currentColor" stroke-width="2" stroke-linecap="round"/><path d="M185.229 75.1795c1.86 0 3.368-1.6155 3.368-3.6083s-1.508-3.6083-3.368-3.6083c-1.86 0-3.368 1.6155-3.368 3.6083s1.508 3.6083 3.368 3.6083ZM212.652 79.9905c1.86 0 3.368-1.6155 3.368-3.6083s-1.508-3.6083-3.368-3.6083c-1.86 0-3.367 1.6155-3.367 3.6083s1.507 3.6083 3.367 3.6083Z" fill="currentColor"/><path d="M177.051 65.7982c.24-1.5236 1.732-4.4261 5.773-3.8488M207.842 65.3169c1.924-1.6839 6.735-4.0413 10.584 0M197.498 69.4062c2.245 3.6887 5.389 11.5947 0 13.7116l-2.646.9622M188.357 91.5371c.562 1.5237 2.695 4.0413 6.736 1.9244" stroke="currentColor" stroke-width="2" stroke-linecap="round"/><path d="M110.898 56.1759c-7.89 25.9798 14.032 44.8231 25.98 50.9971 10.777-6.543 26.14-9.8625 32.715-10.8247-8.178-6.7355-10.664-19.084-11.306-24.777-4.33 1.4434-15.876-4.0894-10.584-15.3954 4.234-9.0448 8.82-4.4103 10.584-.9622l11.788 5.2922c0-10.9692 7.537-14.6738 11.306-15.1549 2.309-1.5395 4.811-6.5753 5.773-8.9004 1.154 9.0448 12.99 15.6359 18.763 17.8009 7.505-5.9657 13.551-2.4859 15.636 0l5.292-.7217c10.344-3.5279 28.915-15.5878 20.447-35.6019-8.467-20.014-25.98-16.3576-33.677-12.0276-26.365-17.5123-52.842 8.0984-62.785 23.0931-10.023-1.7642-32.041 1.2028-39.932 27.1825Z" fill="currentColor"/><path d="m169.834 60.7467-11.546-6.0138" stroke="currentColor" stroke-width="2" stroke-linecap="round"/><path d="M194.611 60.2656c0 8.2966-5.67 14.6737-12.268 14.6737-6.598 0-12.268-6.3771-12.268-14.6737 0-8.2972 5.67-14.6738 12.268-14.6738 6.598 0 12.268 6.3766 12.268 14.6738ZM226.365 65.5575c0 8.2967-5.671 14.6738-12.269 14.6738s-12.268-6.3771-12.268-14.6738c0-8.2971 5.67-14.6737 12.268-14.6737 6.598 0 12.269 6.3766 12.269 14.6737Z" stroke="currentColor" stroke-width="2"/><path d="M226.846 111.929c18.474-14.8179 7.938-34.7997.24-43.0589-4.233 20.0141-14.032 28.6259-18.282 30.5503l6.736 3.6086 11.306 8.9Z" fill="currentColor"/><path d="M159.731 60.2656c-.401-4.4103-5.533-14.9143-11.065-5.0517-2.406 4.4902-4.138 14.0965 8.178 16.5982" stroke="currentColor" stroke-width="2" stroke-linecap="round"/><path d="M155.642 58.5815c-1.123.9623-2.791 3.464-.482 5.7733M225.403 71.0903c-1.348 7.6977-4.331 14.6704-7.458 19.0037-1.955 2.7096-5.123 6.1298-9.163 9.1112M158.047 71.812c-.16 9.7824 3.657 24.2959 21.169 31.994 2.694 1.184 5.343 1.863 7.917 2.137" stroke="currentColor" stroke-width="2" stroke-linecap="round"/><path d="M207.12 115.593c-3.849-.963-7.537 2.165-8.901 3.849-.721 1.523-1.058 4.522 3.368 4.33 5.533-.241 7.217-8.179 13.712 4.57 5.196 10.199 5.533 30.229 5.051 38.97M194.528 112.947c-1.255 2.726-2.274 7.842 3.691 6.495" stroke="currentColor" stroke-width="2" stroke-linecap="round" stroke-linejoin="round"/><path d="M196.849 103.565c-3.368 1.443-8.252 6.639-6.327 10.103.24.401.962 1.155 1.924.962.421-.084 1.108-.817 2.082-1.683 1.805-1.607 4.595-3.668 8.502-2.887" stroke="currentColor" stroke-width="2" stroke-linecap="round" stroke-linejoin="round"/><path d="M264.166 186.166c2.405-11.787.061-39.446-29.382-66.003l-19.485-17.079-12.268-6.495-2.405-.4811-9.141 2.165-.963.9622-3.127 5.7729c-.481 1.203 1.588 2.598 5.052 1.444M168.872 97.3105c-15.636 2.0847-56.227 11.0475-80.8256 47.3895-23.1836 34.25 3.0367 48.683 22.5216 49.404M1 198.915l108.489-5.292" stroke="currentColor" stroke-width="2" stroke-linecap="round" stroke-linejoin="round"/><path d="m139.078 192.42 202.137-8.806M121.058 194.474c.297.922.078 1.585-1.08 1.685-3.429.294-7.501-5.021-9.108-7.716M121.049 184.034c1.712 2.734 4.696 6.947 7.312 9.338-.238 1.836-2.033 4.629-7.303 1.102-.802-2.49-5.366-6.865-5.366-7.133" stroke="currentColor" stroke-width="2" stroke-linecap="round"/><path d="M125.692 181.463c3.274 3.613 9.216 11.353 6.787 13.41-.431.364-.98.4-1.607.186-.748-.255-1.607-.862-2.511-1.687-2.616-2.39-5.6-6.603-7.312-9.338" stroke="currentColor" stroke-width="2" stroke-linecap="round"/><path d="M98.7803 190.878c5.4767-6.858 22.9827-21.723 32.9837-12.722 3.988 3.981 8.959 11.174 6.102 14.114-1.429 1.102-4.522-.368-6.516-3.307M118.29 151.767c-3.448 2.727-8.852 9.815-2.886 16.358" stroke="currentColor" stroke-width="2" stroke-linecap="round"/></svg>